<svg id="svg" version="1.1" width="400" height="400" viewBox="0 0 400 400" xmlns="http://www.w3.org/2000/svg" xmlns:xlink="http://www.w3.org/1999/xlink" ><g id="svgg"><path id="path0" d="M213.201 73.398 C 212.686 73.948,212.339 74.464,212.432 74.546 C 212.524 74.628,213.019 74.178,213.530 73.547 C 214.676 72.135,214.474 72.044,213.201 73.398 M318.200 264.146 C 317.078 265.450,316.735 265.999,317.051 265.987 C 317.441 265.973,318.958 264.020,318.739 263.813 C 318.663 263.740,318.420 263.890,318.200 264.146 M92.489 276.142 C 93.210 276.880,93.877 277.418,93.971 277.338 C 94.202 277.140,91.937 274.800,91.514 274.800 C 91.329 274.800,91.767 275.404,92.489 276.142 M283.829 297.829 C 283.405 298.138,283.136 298.469,283.230 298.563 C 283.324 298.657,283.748 298.481,284.171 298.171 C 284.595 297.862,284.864 297.531,284.770 297.437 C 284.676 297.343,284.252 297.519,283.829 297.829 " stroke="none" fill="#000000" fill-rule="evenodd"></path><path id="path1" d="M113.044 45.889 C 112.881 46.053,111.544 46.331,110.074 46.507 C 108.603 46.684,106.545 46.929,105.500 47.053 C 104.455 47.176,103.600 47.440,103.600 47.639 C 103.600 47.837,102.891 48.000,102.024 48.000 C 101.157 48.000,100.336 48.180,100.200 48.400 C 100.064 48.620,99.511 48.800,98.971 48.800 C 98.431 48.800,97.677 48.968,97.295 49.173 C 96.913 49.379,95.745 49.778,94.700 50.061 C 93.655 50.343,92.800 50.715,92.800 50.887 C 92.800 51.059,92.260 51.200,91.600 51.200 C 90.940 51.200,90.400 51.380,90.400 51.600 C 90.400 51.820,90.040 52.000,89.600 52.000 C 89.160 52.000,88.800 52.180,88.800 52.400 C 88.800 52.620,88.528 52.800,88.195 52.800 C 87.862 52.800,87.277 52.961,86.895 53.158 C 86.513 53.355,84.940 54.119,83.400 54.856 C 81.860 55.593,80.540 56.332,80.467 56.498 C 80.393 56.664,80.078 56.800,79.767 56.800 C 79.455 56.800,79.200 56.980,79.200 57.200 C 79.200 57.420,78.930 57.600,78.600 57.600 C 78.270 57.600,78.000 57.780,78.000 58.000 C 78.000 58.220,77.640 58.400,77.200 58.400 C 76.760 58.400,76.400 58.547,76.400 58.726 C 76.400 58.905,75.815 59.357,75.100 59.730 C 72.760 60.950,71.032 62.071,70.411 62.774 C 70.075 63.153,69.509 63.630,69.154 63.832 C 66.863 65.137,56.000 75.587,56.000 76.486 C 56.000 76.702,55.460 77.383,54.800 78.000 C 54.140 78.617,53.600 79.239,53.600 79.382 C 53.600 79.526,53.061 80.219,52.402 80.922 C 51.743 81.625,51.203 82.385,51.202 82.612 C 51.201 82.838,50.840 83.283,50.400 83.600 C 49.960 83.917,49.600 84.497,49.600 84.888 C 49.600 85.280,49.450 85.600,49.268 85.600 C 49.085 85.600,48.680 86.095,48.368 86.700 C 48.056 87.305,47.690 87.890,47.553 88.000 C 47.417 88.110,46.840 89.100,46.273 90.200 C 45.705 91.300,44.873 92.740,44.423 93.400 C 43.973 94.060,43.604 94.915,43.603 95.300 C 43.601 95.685,43.420 96.000,43.200 96.000 C 42.980 96.000,42.800 96.360,42.800 96.800 C 42.800 97.240,42.620 97.600,42.400 97.600 C 42.180 97.600,42.000 97.949,42.000 98.376 C 42.000 98.803,41.820 99.264,41.600 99.400 C 41.380 99.536,41.200 99.997,41.200 100.424 C 41.200 100.851,41.020 101.200,40.800 101.200 C 40.580 101.200,40.400 101.549,40.400 101.976 C 40.400 102.403,40.220 102.864,40.000 103.000 C 39.780 103.136,39.600 103.687,39.600 104.224 C 39.600 104.761,39.420 105.200,39.200 105.200 C 38.980 105.200,38.800 105.560,38.800 106.000 C 38.800 106.440,38.620 106.800,38.400 106.800 C 38.180 106.800,38.000 107.340,38.000 108.000 C 38.000 108.660,37.840 109.200,37.644 109.200 C 37.448 109.200,37.186 109.785,37.063 110.500 C 36.542 113.512,36.290 114.400,35.955 114.400 C 35.760 114.400,35.600 115.120,35.600 116.000 C 35.600 116.880,35.420 117.600,35.200 117.600 C 34.980 117.600,34.800 118.309,34.800 119.176 C 34.800 120.043,34.620 120.864,34.400 121.000 C 34.180 121.136,34.000 121.921,34.000 122.744 C 34.000 123.567,33.837 124.411,33.637 124.620 C 33.231 125.045,32.864 127.773,32.551 132.700 C 32.436 134.515,32.167 136.000,31.954 136.000 C 31.159 136.000,32.011 165.738,32.830 166.580 C 33.034 166.789,33.200 168.094,33.200 169.480 C 33.200 170.893,33.376 172.000,33.600 172.000 C 33.820 172.000,34.000 172.799,34.000 173.776 C 34.000 174.753,34.180 175.664,34.400 175.800 C 34.620 175.936,34.800 176.746,34.800 177.600 C 34.800 178.454,34.980 179.264,35.200 179.400 C 35.420 179.536,35.600 180.447,35.600 181.424 C 35.600 182.401,35.780 183.200,36.000 183.200 C 36.220 183.200,36.400 183.592,36.400 184.072 C 36.400 184.992,37.060 187.328,37.649 188.495 C 37.842 188.877,38.000 189.631,38.000 190.171 C 38.000 190.711,38.180 191.264,38.400 191.400 C 38.620 191.536,38.800 192.177,38.800 192.824 C 38.800 193.471,38.980 194.000,39.200 194.000 C 39.420 194.000,39.600 194.540,39.600 195.200 C 39.600 195.860,39.780 196.400,40.000 196.400 C 40.220 196.400,40.400 196.762,40.400 197.205 C 40.400 197.648,40.580 198.368,40.800 198.805 C 41.020 199.242,41.380 199.958,41.600 200.395 C 41.820 200.832,42.000 201.552,42.000 201.995 C 42.000 202.438,42.180 202.800,42.400 202.800 C 42.620 202.800,42.800 203.160,42.800 203.600 C 42.800 204.040,42.957 204.400,43.149 204.400 C 43.341 204.400,43.615 205.133,43.758 206.028 C 43.901 206.924,44.323 208.121,44.695 208.689 C 45.318 209.639,46.589 212.447,47.735 215.400 C 47.991 216.060,48.292 216.690,48.405 216.800 C 48.518 216.910,49.051 217.900,49.590 219.000 C 50.128 220.100,51.071 221.752,51.684 222.672 C 52.298 223.592,52.800 224.537,52.800 224.772 C 52.800 225.007,52.980 225.200,53.200 225.200 C 53.420 225.200,53.600 225.560,53.600 226.000 C 53.600 226.440,53.780 226.800,54.000 226.800 C 54.220 226.800,54.400 227.094,54.400 227.453 C 54.400 227.812,54.729 228.397,55.130 228.753 C 55.532 229.109,56.116 229.985,56.428 230.700 C 56.740 231.415,57.131 232.000,57.298 232.000 C 57.464 232.000,57.600 232.270,57.600 232.600 C 57.600 232.930,57.780 233.200,58.000 233.200 C 58.220 233.200,58.400 233.470,58.400 233.800 C 58.400 234.130,58.580 234.400,58.800 234.400 C 59.020 234.400,59.200 234.670,59.200 235.000 C 59.200 235.330,59.380 235.600,59.600 235.600 C 59.820 235.600,60.000 235.786,60.000 236.013 C 60.000 236.570,63.586 242.036,64.484 242.847 C 64.878 243.203,65.200 243.671,65.200 243.888 C 65.200 244.104,65.740 244.846,66.400 245.537 C 67.060 246.228,67.600 246.992,67.600 247.236 C 67.600 247.480,68.102 248.156,68.715 248.740 C 69.329 249.323,70.272 250.430,70.811 251.200 C 71.350 251.970,72.288 253.122,72.896 253.759 C 73.503 254.397,74.000 255.046,74.000 255.201 C 74.000 255.357,74.765 256.307,75.700 257.313 C 76.635 258.319,77.760 259.624,78.200 260.213 C 78.640 260.802,79.765 262.070,80.700 263.031 C 81.635 263.993,82.400 264.964,82.400 265.189 C 82.400 265.415,82.580 265.600,82.800 265.600 C 83.020 265.600,83.200 265.758,83.200 265.951 C 83.200 266.431,105.759 289.006,108.224 290.993 C 109.311 291.870,111.348 293.715,112.750 295.093 C 114.153 296.472,115.446 297.600,115.623 297.600 C 115.801 297.600,116.838 298.455,117.927 299.500 C 120.215 301.695,121.519 302.800,121.823 302.800 C 121.941 302.800,122.859 303.610,123.864 304.600 C 124.868 305.590,125.822 306.400,125.984 306.400 C 126.145 306.400,126.710 306.771,127.239 307.224 C 127.767 307.678,128.606 308.398,129.103 308.824 C 129.600 309.251,130.119 309.600,130.256 309.600 C 130.394 309.600,130.797 309.924,131.153 310.319 C 131.509 310.714,132.430 311.472,133.200 312.004 C 133.970 312.535,135.077 313.471,135.660 314.085 C 136.244 314.698,136.884 315.200,137.082 315.200 C 137.281 315.200,138.131 315.830,138.972 316.600 C 139.813 317.370,140.635 318.000,140.800 318.000 C 140.965 318.000,141.787 318.630,142.628 319.400 C 143.469 320.170,144.376 320.800,144.645 320.800 C 144.914 320.800,145.193 320.939,145.267 321.110 C 145.449 321.534,150.334 325.200,150.716 325.200 C 150.885 325.200,151.283 325.560,151.600 326.000 C 151.917 326.440,152.409 326.800,152.692 326.800 C 152.975 326.800,153.772 327.340,154.463 328.000 C 155.154 328.660,155.922 329.200,156.171 329.200 C 156.420 329.200,156.883 329.560,157.200 330.000 C 157.517 330.440,158.057 330.800,158.400 330.800 C 158.743 330.800,159.283 331.160,159.600 331.600 C 159.917 332.040,160.373 332.400,160.613 332.400 C 160.853 332.400,161.398 332.724,161.825 333.119 C 163.015 334.224,167.503 337.200,167.978 337.200 C 168.210 337.200,168.400 337.368,168.400 337.573 C 168.400 337.778,168.738 338.053,169.151 338.184 C 169.564 338.316,170.419 338.867,171.051 339.411 C 171.683 339.954,172.403 340.399,172.651 340.400 C 172.899 340.400,173.326 340.670,173.600 341.000 C 173.874 341.330,174.353 341.600,174.666 341.600 C 174.978 341.600,175.589 341.931,176.023 342.336 C 176.458 342.741,177.305 343.326,177.907 343.636 C 178.508 343.946,179.349 344.515,179.775 344.900 C 180.202 345.285,180.704 345.600,180.892 345.600 C 181.080 345.600,181.620 345.960,182.092 346.400 C 182.564 346.840,183.187 347.200,183.475 347.200 C 183.764 347.200,184.000 347.380,184.000 347.600 C 184.000 347.820,184.320 348.000,184.712 348.000 C 185.103 348.000,185.683 348.360,186.000 348.800 C 186.317 349.240,186.897 349.600,187.288 349.600 C 187.680 349.600,188.000 349.780,188.000 350.000 C 188.000 350.220,188.278 350.400,188.617 350.400 C 188.956 350.400,189.620 350.760,190.092 351.200 C 190.564 351.640,191.187 352.000,191.475 352.000 C 191.764 352.000,192.000 352.180,192.000 352.400 C 192.000 352.620,192.360 352.800,192.800 352.800 C 193.240 352.800,193.600 352.958,193.600 353.151 C 193.600 353.345,194.140 353.727,194.800 354.000 C 195.460 354.273,196.000 354.655,196.000 354.849 C 196.000 355.042,196.260 355.200,196.577 355.200 C 196.895 355.200,197.770 355.563,198.522 356.007 L 199.890 356.814 201.845 355.893 C 202.920 355.386,204.561 354.483,205.492 353.886 C 206.423 353.289,207.290 352.800,207.420 352.800 C 207.550 352.800,208.441 352.260,209.400 351.600 C 210.359 350.940,211.337 350.400,211.572 350.400 C 211.807 350.400,212.000 350.220,212.000 350.000 C 212.000 349.780,212.236 349.600,212.525 349.600 C 212.813 349.600,213.436 349.240,213.908 348.800 C 214.380 348.360,215.044 348.000,215.383 348.000 C 215.722 348.000,216.000 347.820,216.000 347.600 C 216.000 347.380,216.360 347.200,216.800 347.200 C 217.240 347.200,217.600 347.050,217.600 346.868 C 217.600 346.685,218.095 346.280,218.700 345.968 C 219.305 345.656,219.890 345.297,220.000 345.171 C 220.182 344.961,223.872 342.510,225.809 341.311 C 226.244 341.042,227.185 340.527,227.900 340.165 C 228.615 339.804,229.200 339.349,229.200 339.154 C 229.200 338.959,229.436 338.800,229.725 338.800 C 230.013 338.800,230.636 338.440,231.108 338.000 C 231.580 337.560,232.204 337.200,232.495 337.200 C 232.786 337.200,233.283 336.840,233.600 336.400 C 233.917 335.960,234.457 335.600,234.800 335.600 C 235.143 335.600,235.683 335.240,236.000 334.800 C 236.317 334.360,236.807 334.000,237.088 334.000 C 237.370 334.000,237.600 333.850,237.600 333.668 C 237.600 333.485,238.095 333.081,238.700 332.770 C 239.305 332.460,240.091 331.889,240.447 331.503 C 240.803 331.116,241.348 330.800,241.659 330.800 C 241.969 330.800,242.483 330.440,242.800 330.000 C 243.117 329.560,243.580 329.200,243.829 329.200 C 244.078 329.200,244.846 328.660,245.537 328.000 C 246.228 327.340,246.998 326.800,247.249 326.800 C 247.501 326.800,248.000 326.485,248.359 326.100 C 248.718 325.715,249.305 325.220,249.665 325.000 C 251.936 323.609,258.449 318.778,260.600 316.888 C 261.040 316.501,262.030 315.747,262.800 315.211 C 263.570 314.676,264.491 313.914,264.847 313.519 C 265.203 313.124,265.671 312.800,265.888 312.800 C 266.104 312.800,266.846 312.260,267.537 311.600 C 268.228 310.940,268.974 310.400,269.196 310.400 C 269.418 310.400,269.600 310.220,269.600 310.000 C 269.600 309.780,269.870 309.600,270.200 309.600 C 270.530 309.600,270.800 309.441,270.800 309.247 C 270.800 309.052,271.624 308.287,272.632 307.547 C 273.639 306.806,275.255 305.435,276.221 304.500 C 277.188 303.565,278.129 302.800,278.311 302.800 C 278.494 302.800,279.722 301.765,281.041 300.500 C 282.359 299.235,284.123 297.682,284.960 297.048 C 285.798 296.414,287.232 295.154,288.149 294.248 C 289.065 293.342,290.469 292.109,291.269 291.509 C 293.174 290.079,316.800 266.527,316.800 266.057 C 316.800 265.859,318.150 264.297,319.800 262.587 C 321.450 260.877,322.800 259.355,322.800 259.204 C 322.800 259.053,323.520 258.173,324.400 257.248 C 325.280 256.323,326.000 255.486,326.000 255.388 C 326.000 255.163,327.123 253.786,328.300 252.568 C 328.795 252.056,329.200 251.486,329.200 251.302 C 329.200 251.118,329.920 250.172,330.800 249.200 C 331.680 248.228,332.400 247.282,332.400 247.098 C 332.400 246.914,332.850 246.314,333.400 245.764 C 333.950 245.214,334.400 244.612,334.400 244.426 C 334.400 244.240,335.026 243.393,335.791 242.544 C 336.556 241.695,337.186 240.790,337.191 240.533 C 337.196 240.277,337.342 240.007,337.515 239.933 C 337.981 239.736,341.600 234.166,341.600 233.646 C 341.600 233.401,341.780 233.200,342.000 233.200 C 342.220 233.200,342.400 232.930,342.400 232.600 C 342.400 232.270,342.580 232.000,342.800 232.000 C 343.020 232.000,343.200 231.730,343.200 231.400 C 343.200 231.070,343.380 230.800,343.600 230.800 C 343.820 230.800,344.000 230.480,344.000 230.088 C 344.000 229.697,344.360 229.117,344.800 228.800 C 345.240 228.483,345.600 227.903,345.600 227.512 C 345.600 227.120,345.780 226.800,346.000 226.800 C 346.220 226.800,346.400 226.440,346.400 226.000 C 346.400 225.560,346.546 225.200,346.725 225.200 C 346.904 225.200,347.298 224.570,347.600 223.800 C 347.902 223.030,348.296 222.400,348.475 222.400 C 348.654 222.400,348.800 222.130,348.800 221.800 C 348.800 221.470,348.946 221.200,349.125 221.200 C 349.304 221.200,349.698 220.570,350.000 219.800 C 350.302 219.030,350.696 218.400,350.875 218.400 C 351.054 218.400,351.200 218.040,351.200 217.600 C 351.200 217.160,351.380 216.800,351.600 216.800 C 351.820 216.800,352.000 216.440,352.000 216.000 C 352.000 215.560,352.180 215.200,352.400 215.200 C 352.620 215.200,352.800 214.964,352.800 214.675 C 352.800 214.386,353.160 213.405,353.600 212.494 C 354.040 211.584,354.400 210.560,354.400 210.219 C 354.400 209.879,354.536 209.600,354.702 209.600 C 354.869 209.600,355.244 209.015,355.536 208.300 C 355.828 207.585,356.223 206.640,356.412 206.200 C 357.552 203.562,358.800 200.042,358.800 199.469 C 358.800 199.101,358.980 198.800,359.200 198.800 C 359.420 198.800,359.600 198.260,359.600 197.600 C 359.600 196.940,359.780 196.400,360.000 196.400 C 360.220 196.400,360.400 195.860,360.400 195.200 C 360.400 194.540,360.580 194.000,360.800 194.000 C 361.020 194.000,361.200 193.471,361.200 192.824 C 361.200 192.177,361.380 191.536,361.600 191.400 C 361.820 191.264,362.000 190.623,362.000 189.976 C 362.000 189.329,362.160 188.800,362.356 188.800 C 362.552 188.800,362.809 188.215,362.928 187.500 C 363.287 185.330,363.643 183.841,364.003 183.000 C 364.375 182.130,364.731 180.360,365.066 177.700 C 365.184 176.765,365.442 176.000,365.640 176.000 C 365.838 176.000,366.000 175.100,366.000 174.000 C 366.000 172.900,366.180 172.000,366.400 172.000 C 366.624 172.000,366.800 170.893,366.800 169.480 C 366.800 168.094,366.966 166.789,367.170 166.580 C 368.025 165.702,368.820 137.060,368.012 136.252 C 367.785 136.025,367.600 134.357,367.600 132.544 C 367.600 130.731,367.420 129.136,367.200 129.000 C 366.980 128.864,366.800 127.863,366.800 126.776 C 366.800 125.689,366.620 124.800,366.400 124.800 C 366.180 124.800,366.000 123.900,366.000 122.800 C 366.000 121.700,365.820 120.800,365.600 120.800 C 365.380 120.800,365.200 120.080,365.200 119.200 C 365.200 118.320,365.020 117.600,364.800 117.600 C 364.580 117.600,364.400 116.880,364.400 116.000 C 364.400 115.120,364.240 114.400,364.045 114.400 C 363.710 114.400,363.458 113.512,362.937 110.500 C 362.814 109.785,362.552 109.200,362.356 109.200 C 362.160 109.200,362.000 108.761,362.000 108.224 C 362.000 107.687,361.820 107.136,361.600 107.000 C 361.380 106.864,361.200 106.403,361.200 105.976 C 361.200 105.549,361.020 105.200,360.800 105.200 C 360.580 105.200,360.400 104.660,360.400 104.000 C 360.400 103.340,360.220 102.800,360.000 102.800 C 359.780 102.800,359.600 102.440,359.600 102.000 C 359.600 101.560,359.420 101.200,359.200 101.200 C 358.980 101.200,358.800 100.836,358.800 100.390 C 358.800 99.476,356.092 93.872,355.551 93.667 C 355.358 93.593,355.200 93.203,355.200 92.800 C 355.200 92.397,355.065 92.007,354.900 91.933 C 354.735 91.860,354.167 90.945,353.637 89.900 C 353.108 88.855,352.523 88.000,352.337 88.000 C 352.152 88.000,352.000 87.706,352.000 87.347 C 352.000 86.988,351.684 86.403,351.297 86.047 C 350.911 85.691,350.340 84.905,350.030 84.300 C 349.719 83.695,349.315 83.200,349.132 83.200 C 348.950 83.200,348.800 82.912,348.800 82.560 C 348.800 82.209,348.260 81.417,347.600 80.800 C 346.940 80.183,346.400 79.553,346.400 79.400 C 346.400 79.247,345.860 78.617,345.200 78.000 C 344.540 77.383,344.000 76.758,344.000 76.611 C 344.000 76.463,343.775 76.098,343.500 75.799 C 343.225 75.499,342.280 74.422,341.400 73.404 C 338.830 70.431,335.120 66.800,334.653 66.800 C 334.499 66.800,333.743 66.170,332.973 65.400 C 332.203 64.630,331.444 63.997,331.287 63.992 C 331.129 63.988,330.282 63.358,329.404 62.592 C 328.527 61.827,327.582 61.200,327.304 61.200 C 327.027 61.200,326.800 61.032,326.800 60.827 C 326.800 60.622,326.409 60.330,325.931 60.178 C 325.453 60.026,324.699 59.564,324.255 59.151 C 323.812 58.738,323.213 58.400,322.925 58.400 C 322.636 58.400,322.400 58.220,322.400 58.000 C 322.400 57.780,322.040 57.600,321.600 57.600 C 321.160 57.600,320.800 57.437,320.800 57.238 C 320.800 56.804,311.092 52.000,310.214 52.000 C 309.876 52.000,309.600 51.820,309.600 51.600 C 309.600 51.380,309.238 51.200,308.795 51.200 C 308.352 51.200,307.632 51.020,307.195 50.800 C 306.758 50.580,306.042 50.220,305.605 50.000 C 305.168 49.780,304.369 49.600,303.829 49.600 C 303.289 49.600,302.736 49.420,302.600 49.200 C 302.464 48.980,301.924 48.800,301.400 48.800 C 300.876 48.800,300.336 48.620,300.200 48.400 C 300.064 48.180,299.164 48.000,298.200 48.000 C 297.236 48.000,296.348 47.839,296.226 47.642 C 296.105 47.445,295.239 47.171,294.303 47.033 C 293.366 46.895,291.250 46.580,289.600 46.333 C 285.669 45.744,266.572 45.733,263.200 46.318 C 259.373 46.982,256.825 47.493,254.800 48.004 C 253.810 48.254,252.415 48.554,251.700 48.673 C 250.985 48.791,250.400 49.048,250.400 49.244 C 250.400 49.440,249.961 49.600,249.424 49.600 C 248.887 49.600,248.336 49.780,248.200 50.000 C 248.064 50.220,247.513 50.400,246.976 50.400 C 246.439 50.400,246.000 50.580,246.000 50.800 C 246.000 51.020,245.561 51.200,245.024 51.200 C 244.487 51.200,243.936 51.380,243.800 51.600 C 243.664 51.820,243.203 52.000,242.776 52.000 C 242.349 52.000,241.999 52.135,241.997 52.300 C 241.993 52.659,240.056 53.600,239.320 53.600 C 239.034 53.600,238.800 53.780,238.800 54.000 C 238.800 54.220,238.440 54.400,238.000 54.400 C 237.560 54.400,237.200 54.559,237.200 54.753 C 237.200 54.948,236.885 55.207,236.500 55.329 C 235.813 55.546,233.594 56.805,233.200 57.201 C 233.090 57.311,232.505 57.656,231.900 57.968 C 231.295 58.280,230.800 58.685,230.800 58.868 C 230.800 59.050,230.616 59.200,230.391 59.200 C 229.915 59.200,226.953 61.081,225.825 62.100 C 225.398 62.485,224.910 62.800,224.740 62.800 C 224.570 62.800,223.718 63.520,222.847 64.400 C 221.976 65.280,221.069 66.000,220.831 66.000 C 220.594 66.000,220.400 66.180,220.400 66.400 C 220.400 66.620,220.252 66.800,220.071 66.800 C 219.614 66.800,215.642 70.729,214.262 72.547 C 213.636 73.372,212.466 74.757,211.662 75.626 C 209.485 77.980,209.200 78.335,209.200 78.695 C 209.200 78.876,208.840 79.283,208.400 79.600 C 207.960 79.917,207.600 80.407,207.600 80.688 C 207.600 80.970,207.420 81.200,207.200 81.200 C 206.980 81.200,206.800 81.430,206.800 81.712 C 206.800 81.993,206.440 82.483,206.000 82.800 C 205.560 83.117,205.200 83.573,205.200 83.813 C 205.200 84.053,204.885 84.598,204.500 85.025 C 204.115 85.451,203.545 86.295,203.232 86.900 C 202.920 87.505,202.515 88.000,202.332 88.000 C 202.150 88.000,202.000 88.278,202.000 88.617 C 202.000 88.956,201.640 89.620,201.200 90.092 C 200.760 90.564,200.400 91.187,200.400 91.475 C 200.400 92.243,199.730 92.116,199.471 91.300 C 199.175 90.364,197.876 88.234,197.500 88.067 C 197.335 87.993,197.200 87.678,197.200 87.367 C 197.200 87.055,197.020 86.800,196.800 86.800 C 196.580 86.800,196.400 86.530,196.400 86.200 C 196.400 85.870,196.220 85.600,196.000 85.600 C 195.780 85.600,195.600 85.330,195.600 85.000 C 195.600 84.670,195.420 84.400,195.200 84.400 C 194.980 84.400,194.800 84.222,194.800 84.005 C 194.800 83.633,194.040 82.585,192.900 81.384 C 192.625 81.094,192.400 80.664,192.400 80.429 C 192.400 80.193,192.232 80.000,192.027 80.000 C 191.822 80.000,191.552 79.680,191.428 79.289 C 191.304 78.898,190.302 77.633,189.201 76.479 C 188.101 75.325,187.200 74.250,187.199 74.091 C 187.197 73.621,180.482 66.800,180.021 66.800 C 179.789 66.800,179.600 66.620,179.600 66.400 C 179.600 66.180,179.406 66.000,179.169 66.000 C 178.931 66.000,178.068 65.304,177.251 64.453 C 176.433 63.602,175.232 62.630,174.581 62.294 C 173.930 61.957,173.056 61.303,172.637 60.841 C 172.218 60.378,171.634 60.000,171.338 60.000 C 171.042 60.000,170.800 59.850,170.800 59.668 C 170.800 59.485,170.305 59.080,169.700 58.768 C 169.095 58.456,168.510 58.111,168.400 58.001 C 168.030 57.629,165.812 56.381,164.300 55.694 C 163.475 55.318,162.800 54.874,162.800 54.706 C 162.800 54.538,162.440 54.400,162.000 54.400 C 161.560 54.400,161.200 54.220,161.200 54.000 C 161.200 53.780,160.840 53.600,160.400 53.600 C 159.960 53.600,159.600 53.420,159.600 53.200 C 159.600 52.980,159.240 52.800,158.800 52.800 C 158.360 52.800,158.000 52.620,158.000 52.400 C 158.000 52.180,157.640 52.000,157.200 52.000 C 156.760 52.000,156.400 51.820,156.400 51.600 C 156.400 51.380,155.860 51.200,155.200 51.200 C 154.540 51.200,154.000 51.020,154.000 50.800 C 154.000 50.580,153.550 50.400,153.000 50.400 C 152.450 50.400,152.000 50.220,152.000 50.000 C 152.000 49.780,151.471 49.600,150.824 49.600 C 150.177 49.600,149.536 49.420,149.400 49.200 C 149.264 48.980,148.724 48.800,148.200 48.800 C 147.676 48.800,147.148 48.639,147.026 48.442 C 146.905 48.245,146.129 47.985,145.303 47.863 C 144.476 47.741,142.810 47.444,141.600 47.205 C 140.390 46.965,138.410 46.578,137.200 46.345 C 134.628 45.851,113.482 45.451,113.044 45.889 M133.800 60.769 C 135.340 60.981,137.590 61.352,138.800 61.594 C 140.010 61.836,141.587 62.136,142.304 62.261 C 143.021 62.386,143.706 62.649,143.827 62.844 C 143.948 63.040,144.451 63.200,144.944 63.200 C 145.437 63.200,146.011 63.343,146.220 63.518 C 146.429 63.693,147.320 64.068,148.200 64.352 C 149.723 64.842,150.837 65.298,154.000 66.728 C 165.616 71.979,178.322 84.189,186.175 97.646 C 187.887 100.580,192.965 110.872,193.750 113.000 C 196.287 119.873,197.998 125.070,198.786 128.300 C 199.720 132.123,200.199 132.796,200.641 130.900 C 207.476 101.563,224.161 77.709,245.200 67.194 C 247.420 66.085,250.081 64.923,251.600 64.401 C 252.370 64.136,253.360 63.778,253.800 63.605 C 254.555 63.309,255.629 63.013,259.400 62.063 C 273.256 58.571,292.608 60.028,304.800 65.480 C 332.246 77.754,348.255 100.660,352.829 134.200 C 353.538 139.398,353.569 156.629,352.877 161.000 C 352.599 162.760,352.188 165.460,351.963 167.000 C 350.687 175.764,347.044 189.424,344.017 196.800 C 340.239 206.005,336.282 214.094,332.375 220.600 C 330.288 224.076,322.125 236.392,321.639 236.800 C 321.507 236.910,320.236 238.530,318.814 240.400 C 315.780 244.388,309.042 252.563,307.602 254.002 C 307.051 254.552,305.340 256.435,303.800 258.185 C 296.884 266.044,273.071 288.675,268.243 291.977 C 267.780 292.294,267.310 292.661,267.200 292.791 C 267.090 292.922,265.560 294.186,263.800 295.600 C 262.040 297.014,260.510 298.278,260.400 298.408 C 260.058 298.813,253.324 303.943,245.600 309.684 C 241.530 312.709,237.949 315.398,237.643 315.661 C 236.887 316.308,210.838 333.630,209.369 334.462 C 208.726 334.826,206.670 336.069,204.800 337.224 C 200.579 339.831,199.459 339.925,196.400 337.931 C 195.190 337.142,191.770 335.005,188.800 333.182 C 160.748 315.968,128.541 290.879,107.600 269.929 C 97.024 259.348,90.101 251.738,84.200 244.209 C 83.540 243.367,82.271 241.760,81.380 240.639 C 80.489 239.518,79.328 237.970,78.799 237.200 C 78.271 236.430,77.725 235.710,77.587 235.600 C 76.911 235.062,67.200 220.239,67.200 219.744 C 67.200 219.657,66.519 218.464,65.686 217.093 C 62.077 211.149,56.816 199.341,54.149 191.200 C 53.609 189.550,53.012 187.840,52.824 187.400 C 52.520 186.692,51.529 183.358,50.386 179.200 C 47.083 167.185,45.570 146.004,47.209 134.700 C 48.147 128.224,48.491 126.114,48.820 124.800 C 49.013 124.030,49.464 122.230,49.823 120.800 C 50.181 119.370,50.572 117.775,50.692 117.256 C 50.896 116.373,52.284 112.404,53.760 108.487 C 54.438 106.686,57.670 100.084,59.162 97.453 C 62.838 90.969,69.449 82.829,74.637 78.400 C 78.185 75.370,80.098 73.896,82.800 72.108 C 86.936 69.372,94.838 65.405,98.200 64.378 C 99.080 64.109,100.160 63.746,100.600 63.572 C 103.241 62.524,108.916 61.376,114.378 60.785 C 116.456 60.561,118.256 60.275,118.378 60.151 C 118.690 59.833,130.420 60.304,133.800 60.769 " stroke="none" fill="#127201" fill-rule="evenodd"></path><path id="path2" d="M121.100 60.297 C 122.695 60.373,125.305 60.373,126.900 60.297 C 128.495 60.221,127.190 60.159,124.000 60.159 C 120.810 60.159,119.505 60.221,121.100 60.297 M273.282 60.296 C 274.758 60.373,277.278 60.373,278.882 60.297 C 280.487 60.221,279.280 60.158,276.200 60.158 C 273.120 60.157,271.807 60.219,273.282 60.296 M134.833 60.944 C 134.925 61.023,135.540 61.208,136.200 61.356 C 137.076 61.552,137.238 61.515,136.800 61.218 C 136.260 60.853,134.432 60.598,134.833 60.944 M287.633 60.944 C 287.725 61.023,288.340 61.208,289.000 61.356 C 289.876 61.552,290.038 61.515,289.600 61.218 C 289.060 60.853,287.232 60.598,287.633 60.944 M138.833 61.744 C 138.925 61.823,139.540 62.008,140.200 62.156 C 141.076 62.352,141.238 62.315,140.800 62.018 C 140.260 61.653,138.432 61.398,138.833 61.744 M163.600 72.546 C 163.600 72.656,164.140 73.130,164.800 73.600 C 165.460 74.070,166.000 74.364,166.000 74.254 C 166.000 74.144,165.460 73.670,164.800 73.200 C 164.140 72.730,163.600 72.436,163.600 72.546 M320.000 74.106 C 320.000 74.194,320.765 74.874,321.700 75.617 C 322.635 76.360,323.146 76.652,322.836 76.265 C 322.251 75.537,320.000 73.823,320.000 74.106 M166.800 74.925 C 166.800 74.994,167.385 75.579,168.100 76.225 L 169.400 77.400 168.225 76.100 C 167.130 74.888,166.800 74.616,166.800 74.925 M172.200 80.000 C 173.728 81.540,175.069 82.800,175.179 82.800 C 175.289 82.800,174.128 81.540,172.600 80.000 C 171.072 78.460,169.731 77.200,169.621 77.200 C 169.511 77.200,170.672 78.460,172.200 80.000 M227.268 80.157 C 225.690 81.784,224.400 83.254,224.400 83.424 C 224.400 83.594,224.451 83.658,224.513 83.567 C 224.576 83.475,225.956 82.005,227.581 80.300 C 229.206 78.595,230.445 77.200,230.335 77.200 C 230.225 77.200,228.845 78.531,227.268 80.157 M68.570 84.500 C 66.874 86.305,64.999 88.611,66.050 87.600 C 67.259 86.436,70.507 82.800,70.338 82.800 C 70.244 82.800,69.448 83.565,68.570 84.500 M330.247 83.217 C 330.732 84.064,335.672 90.000,335.891 90.000 C 335.988 90.000,335.378 89.135,334.534 88.077 C 332.382 85.379,329.824 82.480,330.247 83.217 M64.744 89.100 C 63.593 90.489,63.106 91.200,63.304 91.200 C 63.414 91.200,63.986 90.570,64.573 89.800 C 65.663 88.371,65.795 87.832,64.744 89.100 M217.902 91.411 C 216.537 93.237,212.370 100.103,212.530 100.264 C 212.620 100.353,213.463 99.115,214.404 97.513 C 215.344 95.911,216.731 93.727,217.485 92.661 C 218.859 90.716,219.212 89.660,217.902 91.411 M60.253 95.591 C 59.674 96.467,59.200 97.269,59.200 97.374 C 59.200 97.479,58.694 98.428,58.076 99.482 C 57.457 100.537,56.833 101.715,56.688 102.100 C 56.192 103.420,56.717 102.799,57.722 100.877 C 59.070 98.298,60.279 96.157,61.054 94.974 C 61.405 94.439,61.605 94.000,61.499 94.000 C 61.393 94.000,60.832 94.716,60.253 95.591 M184.986 96.300 C 185.335 97.015,185.706 97.600,185.810 97.600 C 186.208 97.600,185.952 96.963,185.167 96.000 L 184.352 95.000 184.986 96.300 M339.560 95.800 C 340.234 97.105,340.788 97.828,340.785 97.400 C 340.783 97.180,340.414 96.550,339.964 96.000 C 339.421 95.336,339.285 95.269,339.560 95.800 M186.360 98.600 C 187.034 99.905,187.588 100.628,187.585 100.200 C 187.583 99.980,187.214 99.350,186.764 98.800 C 186.221 98.136,186.085 98.069,186.360 98.600 M342.569 101.481 C 343.534 103.417,344.625 105.690,344.996 106.532 C 345.366 107.375,345.757 107.976,345.866 107.868 C 346.103 107.631,341.670 98.491,341.168 98.180 C 340.974 98.061,341.605 99.546,342.569 101.481 M188.744 103.100 C 190.881 107.353,192.785 111.769,194.393 116.200 C 194.872 117.520,195.430 118.913,195.632 119.295 C 195.834 119.677,196.000 120.354,196.000 120.800 C 196.000 121.246,196.162 121.923,196.361 122.305 C 197.162 123.847,198.263 128.697,198.672 132.488 L 198.876 134.377 146.971 134.488 C 105.883 134.577,95.032 134.704,94.900 135.100 C 94.779 135.464,93.400 135.600,89.847 135.600 C 86.470 135.600,84.806 135.445,84.460 135.100 C 84.079 134.718,79.700 134.572,65.980 134.481 L 48.000 134.362 48.000 133.061 C 48.000 132.345,48.164 131.589,48.365 131.380 C 48.565 131.171,48.821 130.010,48.933 128.800 C 49.395 123.810,50.584 119.059,53.790 109.400 C 53.974 108.846,53.864 108.907,53.435 109.600 C 52.554 111.019,51.229 115.120,49.817 120.800 C 49.462 122.230,49.013 124.030,48.820 124.800 C 48.492 126.111,48.251 127.592,47.227 134.600 C 45.567 145.956,47.067 167.127,50.386 179.200 C 51.529 183.358,52.520 186.692,52.824 187.400 C 53.012 187.840,53.609 189.550,54.149 191.200 C 56.816 199.341,62.077 211.149,65.686 217.093 C 66.519 218.464,67.200 219.657,67.200 219.744 C 67.200 220.239,76.911 235.062,77.587 235.600 C 77.725 235.710,78.271 236.430,78.799 237.200 C 79.328 237.970,80.489 239.518,81.380 240.639 C 82.271 241.760,83.540 243.367,84.200 244.209 C 87.901 248.931,93.701 255.587,98.800 260.963 C 106.306 268.877,121.200 283.295,121.200 282.648 C 121.200 282.516,119.805 281.101,118.100 279.504 C 112.315 274.085,99.743 261.417,96.364 257.601 C 94.514 255.511,92.720 253.531,92.377 253.201 C 92.034 252.870,90.326 250.800,88.580 248.600 C 86.834 246.400,85.310 244.510,85.192 244.400 C 85.075 244.290,84.357 243.390,83.595 242.400 C 82.834 241.410,81.984 240.362,81.706 240.071 C 81.428 239.781,81.200 239.419,81.200 239.267 C 81.200 239.116,80.795 238.544,80.300 237.996 C 79.805 237.448,79.145 236.505,78.832 235.900 C 78.520 235.295,78.115 234.800,77.932 234.800 C 77.750 234.800,77.600 234.455,77.600 234.033 C 77.600 233.612,77.375 233.176,77.100 233.065 C 76.825 232.954,114.590 232.849,161.023 232.832 L 245.446 232.800 247.270 230.300 C 249.185 227.675,256.800 216.096,256.800 215.809 C 256.800 215.140,266.450 200.549,270.156 195.613 C 276.085 187.717,285.884 178.046,291.230 174.814 C 295.476 172.247,298.474 171.012,302.400 170.214 C 305.065 169.673,309.731 170.029,310.580 170.838 C 310.789 171.037,311.192 171.200,311.475 171.200 C 314.192 171.200,319.408 178.641,320.996 184.781 C 323.591 194.812,323.419 203.577,320.440 213.174 C 319.665 215.670,314.876 224.941,312.619 228.317 C 311.398 230.141,310.400 231.791,310.400 231.984 C 310.400 232.176,310.175 232.424,309.900 232.535 C 309.625 232.646,312.507 232.751,316.303 232.768 L 323.207 232.800 322.703 233.680 C 322.427 234.163,321.885 234.917,321.500 235.355 C 321.115 235.793,320.800 236.305,320.800 236.494 C 320.800 236.682,320.350 237.286,319.800 237.836 C 319.250 238.386,318.800 238.984,318.800 239.164 C 318.800 239.344,318.263 240.101,317.606 240.846 C 316.950 241.591,316.410 242.322,316.406 242.471 C 316.403 242.621,316.175 242.981,315.900 243.272 C 315.625 243.563,314.686 244.701,313.814 245.801 C 312.941 246.900,312.129 247.890,312.008 248.000 C 311.888 248.110,310.982 249.190,309.996 250.400 C 309.010 251.610,308.023 252.800,307.802 253.045 C 307.581 253.290,306.050 254.998,304.400 256.842 C 302.750 258.685,299.690 261.964,297.600 264.128 C 295.510 266.292,293.735 268.273,293.655 268.531 C 293.477 269.103,300.292 262.131,303.946 258.002 C 305.406 256.352,307.051 254.552,307.602 254.002 C 309.042 252.563,315.780 244.388,318.814 240.400 C 320.236 238.530,321.507 236.910,321.639 236.800 C 322.125 236.392,330.288 224.076,332.375 220.600 C 336.282 214.094,340.239 206.005,344.017 196.800 C 347.044 189.424,350.687 175.764,351.963 167.000 C 352.188 165.460,352.599 162.760,352.877 161.000 C 353.569 156.629,353.538 139.398,352.829 134.200 C 351.537 124.726,347.047 107.620,346.101 108.566 C 345.914 108.752,346.196 109.684,347.200 112.200 C 347.769 113.628,349.151 118.531,349.792 121.400 C 350.136 122.940,350.594 124.968,350.809 125.906 C 351.024 126.844,351.200 128.408,351.200 129.382 C 351.200 130.356,351.380 131.264,351.600 131.400 C 351.820 131.536,352.000 132.267,352.000 133.024 L 352.000 134.400 276.561 134.400 L 201.123 134.400 201.330 132.500 C 201.581 130.187,202.104 127.721,202.963 124.800 C 203.319 123.590,203.722 122.011,203.859 121.290 C 203.996 120.570,204.264 119.884,204.454 119.767 C 204.644 119.649,204.800 119.124,204.800 118.600 C 204.800 118.076,204.980 117.536,205.200 117.400 C 205.420 117.264,205.600 116.885,205.600 116.557 C 205.600 116.229,205.960 115.216,206.400 114.306 C 206.840 113.395,207.200 112.411,207.200 112.119 C 207.200 111.828,207.375 111.277,207.588 110.895 C 207.993 110.170,211.551 102.718,212.074 101.500 C 212.983 99.381,211.776 101.349,209.991 104.896 C 206.183 112.461,202.644 122.302,200.641 130.900 C 200.199 132.796,199.720 132.123,198.786 128.300 C 197.995 125.060,196.196 119.598,193.746 113.000 C 192.821 110.509,188.090 100.800,187.801 100.800 C 187.684 100.800,188.108 101.835,188.744 103.100 M55.078 105.420 C 54.485 106.629,54.010 107.839,54.023 108.109 C 54.036 108.379,54.584 107.453,55.241 106.051 C 56.709 102.917,56.570 102.378,55.078 105.420 M288.590 273.131 C 286.176 275.488,282.985 278.534,281.500 279.901 C 280.015 281.268,278.800 282.501,278.800 282.642 C 278.800 282.952,286.228 276.138,290.323 272.070 C 291.946 270.458,293.207 269.074,293.127 268.993 C 293.046 268.913,291.005 270.775,288.590 273.131 M122.200 283.558 C 122.640 284.070,123.900 285.228,125.000 286.131 C 126.100 287.034,126.640 287.354,126.200 286.842 C 125.760 286.330,124.500 285.172,123.400 284.269 C 122.300 283.366,121.760 283.046,122.200 283.558 M275.600 285.255 C 274.170 286.590,273.720 287.141,274.600 286.479 C 276.122 285.333,278.746 282.785,278.375 282.813 C 278.279 282.821,277.030 283.919,275.600 285.255 M128.022 288.663 C 128.035 288.848,129.056 289.799,130.293 290.776 C 131.530 291.753,132.419 292.354,132.269 292.112 C 131.834 291.407,127.998 288.292,128.022 288.663 M269.589 290.451 C 268.385 291.554,267.777 292.219,268.239 291.928 C 269.477 291.148,272.108 288.775,271.931 288.597 C 271.847 288.513,270.793 289.347,269.589 290.451 M134.974 294.496 C 136.088 295.538,137.141 296.393,137.314 296.396 C 137.487 296.398,136.947 295.825,136.114 295.122 C 133.405 292.834,132.903 292.559,134.974 294.496 M264.589 294.637 L 262.600 296.475 264.800 294.757 C 266.010 293.812,267.075 292.985,267.167 292.919 C 267.258 292.854,267.163 292.800,266.956 292.800 C 266.748 292.800,265.683 293.627,264.589 294.637 M138.000 296.888 C 138.000 296.966,138.855 297.733,139.900 298.592 C 140.945 299.451,141.440 299.740,141.000 299.234 C 140.222 298.339,138.000 296.602,138.000 296.888 M153.744 309.109 C 154.060 309.621,156.400 311.353,156.400 311.075 C 156.400 310.976,155.739 310.391,154.932 309.775 C 154.124 309.159,153.589 308.859,153.744 309.109 M158.144 312.309 C 158.460 312.821,160.800 314.553,160.800 314.275 C 160.800 314.176,160.139 313.591,159.332 312.975 C 158.524 312.359,157.989 312.059,158.144 312.309 M239.985 313.629 L 238.600 314.858 240.100 313.781 C 241.426 312.830,241.857 312.400,241.485 312.400 C 241.422 312.400,240.747 312.953,239.985 313.629 M235.300 316.840 C 232.975 318.486,233.142 318.748,235.500 317.154 C 237.846 315.569,237.813 315.596,237.367 315.618 C 237.165 315.628,236.235 316.178,235.300 316.840 M164.269 316.832 C 164.766 317.433,167.200 318.964,167.200 318.676 C 167.200 318.583,166.435 318.002,165.500 317.385 C 164.565 316.768,164.011 316.520,164.269 316.832 M231.722 319.429 L 230.600 320.458 231.900 319.554 C 232.615 319.057,233.200 318.593,233.200 318.525 C 233.200 318.209,232.758 318.480,231.722 319.429 M169.200 320.146 C 169.200 320.256,169.740 320.730,170.400 321.200 C 171.060 321.670,171.600 321.964,171.600 321.854 C 171.600 321.744,171.060 321.270,170.400 320.800 C 169.740 320.330,169.200 320.036,169.200 320.146 M179.200 326.897 C 179.200 327.064,180.777 328.159,184.500 330.577 C 185.105 330.970,185.600 331.207,185.600 331.103 C 185.600 330.936,184.023 329.841,180.300 327.423 C 179.695 327.030,179.200 326.793,179.200 326.897 M215.393 330.256 C 213.352 331.609,212.632 332.323,214.226 331.414 C 215.630 330.614,217.501 329.222,217.193 329.209 C 217.079 329.204,216.269 329.675,215.393 330.256 M210.300 333.429 C 208.805 334.240,208.896 334.578,210.400 333.800 C 211.060 333.459,211.600 333.094,211.600 332.990 C 211.600 332.732,211.557 332.747,210.300 333.429 M192.400 335.379 C 192.400 335.489,192.940 335.859,193.600 336.200 C 194.260 336.541,194.800 336.731,194.800 336.621 C 194.800 336.511,194.260 336.141,193.600 335.800 C 192.940 335.459,192.400 335.269,192.400 335.379 " stroke="none" fill="#28c001" fill-rule="evenodd"></path><path id="path3" d="M114.800 60.792 C 86.157 63.901,62.253 83.833,52.784 112.506 C 50.512 119.386,49.349 124.304,48.933 128.800 C 48.821 130.010,48.565 131.171,48.365 131.380 C 48.164 131.589,48.000 132.345,48.000 133.061 L 48.000 134.362 65.980 134.481 C 79.700 134.572,84.079 134.718,84.460 135.100 C 84.806 135.445,86.470 135.600,89.847 135.600 C 93.400 135.600,94.779 135.464,94.900 135.100 C 95.032 134.704,105.883 134.577,146.971 134.488 L 198.876 134.377 198.672 132.488 C 198.263 128.697,197.162 123.847,196.361 122.305 C 196.162 121.923,196.000 121.246,196.000 120.800 C 196.000 120.354,195.834 119.677,195.632 119.295 C 195.430 118.913,194.872 117.520,194.393 116.200 C 193.914 114.880,193.335 113.350,193.107 112.800 C 192.879 112.250,192.548 111.440,192.371 111.000 C 178.161 75.688,149.353 57.041,114.800 60.792 M268.000 60.656 C 265.990 60.848,258.854 62.253,257.000 62.822 C 247.826 65.634,242.381 68.363,234.827 73.935 C 229.775 77.662,221.536 86.294,218.509 91.032 C 214.362 97.523,213.069 99.728,211.018 103.811 C 208.353 109.114,207.200 111.665,207.200 112.259 C 207.200 112.474,206.840 113.395,206.400 114.306 C 205.960 115.216,205.600 116.229,205.600 116.557 C 205.600 116.885,205.420 117.264,205.200 117.400 C 204.980 117.536,204.800 118.076,204.800 118.600 C 204.800 119.124,204.644 119.649,204.454 119.767 C 204.264 119.884,203.996 120.570,203.859 121.290 C 203.722 122.011,203.319 123.590,202.963 124.800 C 202.104 127.721,201.581 130.187,201.330 132.500 L 201.123 134.400 276.561 134.400 L 352.000 134.400 352.000 133.024 C 352.000 132.267,351.820 131.536,351.600 131.400 C 351.380 131.264,351.200 130.356,351.200 129.382 C 351.200 128.408,351.024 126.844,350.809 125.906 C 350.594 124.968,350.136 122.940,349.792 121.400 C 349.151 118.531,347.769 113.628,347.200 112.200 C 347.024 111.760,346.664 110.770,346.399 110.000 C 344.313 103.935,338.316 93.163,334.263 88.200 C 324.208 75.887,313.747 68.510,299.886 63.956 C 291.431 61.179,277.546 59.741,268.000 60.656 M136.600 61.968 C 137.920 62.223,139.676 62.533,140.503 62.658 C 141.329 62.783,142.105 63.045,142.226 63.242 C 142.348 63.439,142.966 63.600,143.600 63.600 C 144.234 63.600,144.864 63.780,145.000 64.000 C 145.136 64.220,145.599 64.400,146.029 64.400 C 146.459 64.400,147.123 64.560,147.505 64.756 C 147.887 64.952,149.010 65.470,150.000 65.906 C 156.474 68.762,163.270 72.842,166.219 75.642 C 166.890 76.279,167.573 76.800,167.737 76.800 C 168.286 76.800,170.000 78.755,170.000 79.382 C 170.000 79.936,165.067 80.000,122.400 80.000 C 90.933 80.000,74.800 79.864,74.800 79.600 C 74.800 79.380,74.992 79.200,75.226 79.200 C 75.460 79.200,76.529 78.300,77.600 77.200 C 78.671 76.100,79.706 75.200,79.899 75.200 C 80.091 75.200,80.641 74.835,81.120 74.389 C 82.154 73.426,88.447 69.573,90.300 68.769 C 91.015 68.459,91.600 68.069,91.600 67.902 C 91.600 67.736,91.872 67.600,92.205 67.600 C 92.538 67.600,93.123 67.435,93.505 67.234 C 95.950 65.944,102.686 63.600,103.947 63.600 C 104.390 63.600,104.852 63.439,104.974 63.242 C 105.095 63.045,105.871 62.783,106.697 62.658 C 107.524 62.533,109.229 62.280,110.486 62.096 C 111.744 61.912,112.907 61.626,113.071 61.462 C 113.528 61.005,133.875 61.443,136.600 61.968 M289.400 61.962 C 290.720 62.220,292.520 62.533,293.400 62.657 C 294.280 62.781,295.171 63.044,295.380 63.241 C 295.589 63.438,296.228 63.600,296.800 63.600 C 297.372 63.600,298.011 63.749,298.220 63.930 C 298.429 64.112,299.410 64.505,300.400 64.803 C 302.183 65.339,305.155 66.525,306.495 67.233 C 306.877 67.435,307.462 67.600,307.795 67.600 C 308.128 67.600,308.400 67.780,308.400 68.000 C 308.400 68.220,308.656 68.400,308.969 68.400 C 309.641 68.400,317.652 73.244,318.894 74.402 C 319.365 74.841,319.901 75.200,320.084 75.200 C 320.442 75.200,324.800 79.443,324.800 79.791 C 324.800 79.906,303.290 80.000,277.000 80.000 C 250.710 80.000,229.200 79.889,229.200 79.754 C 229.200 79.405,232.090 76.800,232.477 76.800 C 232.654 76.800,233.474 76.159,234.299 75.375 C 236.394 73.387,242.064 69.645,245.400 68.048 C 246.940 67.312,248.892 66.369,249.738 65.954 C 250.584 65.539,251.531 65.200,251.843 65.200 C 252.155 65.200,252.813 64.992,253.305 64.738 C 255.284 63.715,255.636 63.600,256.795 63.600 C 257.458 63.600,258.000 63.439,258.000 63.242 C 258.000 63.045,258.675 62.784,259.500 62.661 C 260.325 62.538,262.137 62.267,263.526 62.059 C 264.916 61.851,266.166 61.567,266.305 61.428 C 266.735 60.999,286.852 61.464,289.400 61.962 M106.200 89.200 C 106.336 89.420,106.889 89.600,107.429 89.600 C 107.969 89.600,108.723 89.759,109.105 89.953 C 109.487 90.148,110.340 90.529,111.000 90.800 C 111.660 91.072,112.650 91.554,113.200 91.872 C 113.750 92.189,114.515 92.549,114.900 92.671 C 115.285 92.793,115.600 93.052,115.600 93.247 C 115.600 93.441,115.778 93.600,115.995 93.600 C 117.497 93.600,123.202 100.221,124.716 103.719 C 130.678 117.500,97.988 140.639,82.588 133.538 C 72.610 128.937,71.437 109.431,80.436 97.755 C 81.303 96.631,82.578 95.281,83.269 94.755 C 83.961 94.230,84.755 93.575,85.035 93.300 C 85.314 93.025,85.721 92.800,85.938 92.800 C 86.155 92.800,86.393 92.665,86.467 92.500 C 86.540 92.335,87.500 91.772,88.600 91.249 C 90.629 90.285,91.251 90.032,93.400 89.296 C 94.982 88.754,105.874 88.672,106.200 89.200 M302.800 170.046 C 299.106 170.802,295.208 172.409,291.230 174.814 C 285.884 178.046,276.085 187.717,270.156 195.613 C 266.450 200.549,256.800 215.140,256.800 215.809 C 256.800 216.096,249.185 227.675,247.270 230.300 L 245.446 232.800 161.023 232.832 C 114.590 232.849,76.825 232.954,77.100 233.065 C 77.375 233.176,77.600 233.612,77.600 234.033 C 77.600 234.455,77.750 234.800,77.932 234.800 C 78.115 234.800,78.520 235.295,78.832 235.900 C 79.145 236.505,79.805 237.448,80.300 237.996 C 80.795 238.544,81.200 239.116,81.200 239.267 C 81.200 239.419,81.428 239.781,81.706 240.071 C 81.984 240.362,82.834 241.410,83.595 242.400 C 84.357 243.390,85.075 244.290,85.192 244.400 C 85.310 244.510,86.834 246.400,88.580 248.600 C 90.326 250.800,92.034 252.870,92.377 253.201 C 92.720 253.531,94.509 255.511,96.354 257.601 C 100.208 261.968,115.027 276.762,119.991 281.200 C 121.837 282.850,124.349 285.110,125.574 286.223 C 127.403 287.884,135.147 294.395,138.152 296.798 C 138.566 297.129,139.668 298.030,140.600 298.800 C 143.247 300.986,143.705 301.344,145.200 302.400 C 145.970 302.944,146.870 303.605,147.200 303.870 C 151.250 307.117,159.880 313.557,161.500 314.543 C 161.775 314.710,161.998 314.702,161.997 314.524 C 161.995 314.346,160.895 313.492,159.553 312.628 C 158.210 311.763,156.907 310.857,156.656 310.614 C 156.405 310.372,155.570 309.738,154.800 309.206 C 154.030 308.674,153.310 308.139,153.200 308.018 C 153.090 307.897,151.920 306.990,150.600 306.002 C 147.428 303.629,138.453 296.527,136.266 294.660 C 135.790 294.254,134.706 293.354,133.859 292.660 C 133.011 291.967,131.211 290.366,129.859 289.103 C 128.506 287.840,127.266 286.805,127.101 286.803 C 125.936 286.791,123.267 282.989,123.918 282.268 C 124.515 281.606,124.616 281.592,124.729 282.156 C 124.923 283.120,126.000 282.936,126.000 281.939 L 126.000 281.078 126.704 281.889 C 127.515 282.825,129.778 283.041,129.436 282.150 C 129.316 281.837,129.478 281.600,129.813 281.600 C 130.136 281.600,130.400 281.870,130.400 282.200 C 130.400 282.530,130.580 282.800,130.800 282.800 C 131.020 282.800,131.200 282.530,131.200 282.200 C 131.200 281.449,131.758 281.426,132.361 282.153 C 132.913 282.818,134.979 282.781,135.666 282.094 C 136.332 281.428,136.800 281.472,136.800 282.200 C 136.800 282.530,136.980 282.800,137.200 282.800 C 137.420 282.800,137.600 282.530,137.600 282.200 C 137.600 281.424,137.962 281.441,138.869 282.262 C 139.550 282.879,139.654 282.875,140.400 282.200 C 141.119 281.549,141.200 281.543,141.200 282.138 C 141.200 282.502,141.470 282.800,141.800 282.800 C 142.130 282.800,142.400 282.575,142.400 282.300 C 142.400 282.025,142.850 281.800,143.400 281.800 C 143.950 281.800,144.400 282.025,144.400 282.300 C 144.400 282.575,144.670 282.800,145.000 282.800 C 145.330 282.800,145.600 282.502,145.600 282.138 C 145.600 281.543,145.681 281.549,146.400 282.200 C 147.146 282.875,147.250 282.879,147.931 282.262 C 148.838 281.441,149.200 281.424,149.200 282.200 C 149.200 282.530,149.380 282.800,149.600 282.800 C 149.820 282.800,150.000 282.530,150.000 282.200 C 150.000 281.424,150.362 281.441,151.269 282.262 C 151.949 282.878,152.051 282.878,152.731 282.262 C 153.638 281.441,154.000 281.424,154.000 282.200 C 154.000 282.530,154.180 282.800,154.400 282.800 C 154.620 282.800,154.800 282.549,154.800 282.242 C 154.800 281.899,155.184 281.707,155.800 281.742 C 156.350 281.774,156.800 282.025,156.800 282.300 C 156.800 283.052,157.922 282.901,158.071 282.129 C 158.192 281.500,158.243 281.500,158.871 282.129 C 159.241 282.498,159.659 282.800,159.800 282.800 C 159.941 282.800,160.359 282.498,160.729 282.129 C 161.357 281.500,161.408 281.500,161.529 282.129 C 161.691 282.970,162.348 283.001,162.662 282.183 C 162.872 281.636,162.985 281.644,163.649 282.245 C 164.348 282.877,164.450 282.878,165.131 282.262 C 166.038 281.441,166.400 281.424,166.400 282.200 C 166.400 282.530,166.580 282.800,166.800 282.800 C 167.020 282.800,167.200 282.560,167.200 282.267 C 167.200 281.941,167.667 281.733,168.400 281.733 C 169.133 281.733,169.600 281.941,169.600 282.267 C 169.600 282.560,169.780 282.800,170.000 282.800 C 170.220 282.800,170.400 282.530,170.400 282.200 C 170.400 281.424,170.762 281.441,171.669 282.262 C 172.350 282.879,172.454 282.875,173.200 282.200 C 173.919 281.549,174.000 281.543,174.000 282.138 C 174.000 283.006,175.103 282.998,175.271 282.129 C 175.392 281.500,175.443 281.500,176.071 282.129 C 176.441 282.498,176.859 282.800,177.000 282.800 C 177.141 282.800,177.559 282.498,177.929 282.129 C 178.557 281.500,178.608 281.500,178.729 282.129 C 178.881 282.915,179.541 283.019,179.817 282.300 C 180.088 281.594,182.000 281.544,182.000 282.242 C 182.000 282.549,182.180 282.800,182.400 282.800 C 182.620 282.800,182.800 282.530,182.800 282.200 C 182.800 281.449,183.358 281.426,183.961 282.153 C 184.516 282.822,186.457 282.783,187.297 282.085 C 187.796 281.672,187.949 281.691,188.141 282.190 C 188.453 283.002,189.109 282.967,189.271 282.129 C 189.392 281.500,189.443 281.500,190.071 282.129 C 190.441 282.498,190.859 282.800,191.000 282.800 C 191.141 282.800,191.559 282.498,191.929 282.129 C 192.557 281.500,192.608 281.500,192.729 282.129 C 192.897 282.998,194.000 283.006,194.000 282.138 C 194.000 281.543,194.081 281.549,194.800 282.200 C 195.546 282.875,195.650 282.879,196.331 282.262 C 197.238 281.441,197.600 281.424,197.600 282.200 C 197.600 282.530,197.780 282.800,198.000 282.800 C 198.220 282.800,198.400 282.530,198.400 282.200 C 198.400 281.433,198.962 281.431,199.596 282.196 C 200.023 282.710,200.236 282.715,201.145 282.239 C 201.725 281.935,203.010 281.354,204.000 280.949 C 207.993 279.314,223.246 266.605,225.155 263.322 C 225.539 262.663,225.577 262.678,225.588 263.500 C 225.595 264.008,225.849 264.400,226.172 264.400 C 226.487 264.400,226.822 263.995,226.918 263.500 L 227.091 262.600 227.146 263.500 C 227.204 264.473,234.800 264.969,234.800 264.000 C 234.800 263.780,235.505 263.600,236.367 263.600 C 237.258 263.600,238.011 263.384,238.113 263.100 C 238.235 262.761,238.550 262.890,239.093 263.500 C 239.909 264.417,241.200 264.724,241.200 264.000 C 241.200 263.780,241.457 263.600,241.772 263.600 C 242.087 263.600,242.422 263.195,242.518 262.700 L 242.691 261.800 242.746 262.700 C 242.803 263.653,243.809 263.947,244.113 263.100 C 244.235 262.761,244.550 262.890,245.093 263.500 C 245.909 264.417,247.200 264.724,247.200 264.000 C 247.200 263.780,247.905 263.600,248.767 263.600 C 249.658 263.600,250.411 263.384,250.513 263.100 C 250.635 262.761,250.950 262.890,251.493 263.500 C 252.309 264.417,253.600 264.724,253.600 264.000 C 253.600 263.780,254.305 263.600,255.167 263.600 C 256.058 263.600,256.811 263.384,256.913 263.100 C 257.035 262.761,257.350 262.890,257.893 263.500 C 258.333 263.995,258.898 264.400,259.147 264.400 C 259.396 264.400,259.614 263.995,259.632 263.500 C 259.649 263.005,259.754 262.825,259.865 263.100 C 259.976 263.375,260.667 263.600,261.400 263.600 C 262.133 263.600,262.814 263.375,262.913 263.100 C 263.035 262.761,263.350 262.890,263.893 263.500 C 264.709 264.417,266.000 264.724,266.000 264.000 C 266.000 263.780,266.705 263.600,267.567 263.600 C 268.458 263.600,269.211 263.384,269.313 263.100 C 269.435 262.761,269.750 262.890,270.293 263.500 C 271.109 264.417,272.400 264.724,272.400 264.000 C 272.400 263.780,272.940 263.600,273.600 263.600 C 274.260 263.600,274.800 263.780,274.800 264.000 C 274.800 264.220,274.535 264.400,274.211 264.400 C 273.886 264.400,272.818 265.165,271.837 266.100 C 268.714 269.076,267.658 270.000,267.378 270.000 C 267.228 270.000,266.532 270.495,265.831 271.100 C 265.130 271.705,264.026 272.597,263.378 273.081 C 261.157 274.742,257.800 277.166,256.449 278.083 C 255.706 278.587,254.663 279.405,254.131 279.900 C 253.599 280.395,253.014 280.800,252.831 280.800 C 252.648 280.800,252.276 281.068,252.005 281.394 C 251.570 281.918,253.076 282.002,264.627 282.094 L 277.743 282.200 275.772 284.214 C 274.687 285.322,273.420 286.492,272.956 286.814 C 272.192 287.344,268.464 290.567,266.263 292.600 C 265.522 293.285,263.606 294.885,260.206 297.657 C 258.233 299.267,254.803 301.945,252.599 303.599 C 251.279 304.588,250.110 305.494,250.000 305.611 C 249.890 305.729,248.630 306.684,247.200 307.735 C 245.770 308.785,244.329 309.860,243.997 310.122 C 242.777 311.089,233.703 317.526,230.600 319.626 C 228.840 320.817,227.310 321.887,227.200 322.005 C 226.622 322.622,219.600 327.200,219.232 327.200 C 218.994 327.200,218.800 327.350,218.800 327.532 C 218.800 327.715,218.305 328.115,217.700 328.422 C 217.095 328.728,215.594 329.645,214.365 330.460 C 209.253 333.849,200.760 338.800,200.059 338.800 C 199.247 338.800,192.569 334.887,185.252 330.124 C 182.750 328.496,180.633 327.234,180.547 327.320 C 180.276 327.590,192.266 335.253,198.296 338.662 L 199.991 339.621 201.496 338.813 C 203.037 337.986,204.928 336.865,208.939 334.400 C 214.734 330.839,235.904 316.646,240.017 313.564 C 240.778 312.994,243.560 310.931,246.200 308.980 C 248.840 307.029,251.914 304.705,253.030 303.816 C 254.147 302.927,255.663 301.750,256.400 301.200 C 258.544 299.600,262.065 296.770,263.833 295.226 C 264.731 294.442,266.879 292.630,268.604 291.200 C 271.891 288.477,278.168 283.030,279.205 282.001 C 279.538 281.670,280.978 280.333,282.405 279.028 C 288.892 273.098,298.754 263.151,304.400 256.842 C 306.050 254.998,307.581 253.290,307.802 253.045 C 308.023 252.800,309.010 251.610,309.996 250.400 C 310.982 249.190,311.888 248.110,312.008 248.000 C 312.129 247.890,312.941 246.900,313.814 245.801 C 314.686 244.701,315.625 243.563,315.900 243.272 C 316.175 242.981,316.403 242.621,316.406 242.471 C 316.410 242.322,316.950 241.591,317.606 240.846 C 318.263 240.101,318.800 239.344,318.800 239.164 C 318.800 238.984,319.250 238.386,319.800 237.836 C 320.350 237.286,320.800 236.682,320.800 236.494 C 320.800 236.305,321.115 235.793,321.500 235.355 C 321.885 234.917,322.427 234.163,322.703 233.680 L 323.207 232.800 316.303 232.768 C 312.507 232.751,309.625 232.646,309.900 232.535 C 310.175 232.424,310.400 232.176,310.400 231.984 C 310.400 231.791,311.398 230.141,312.619 228.317 C 314.876 224.941,319.665 215.670,320.440 213.174 C 323.419 203.577,323.591 194.812,320.996 184.781 C 319.391 178.573,314.191 171.200,311.419 171.200 C 311.105 171.200,310.749 171.041,310.629 170.846 C 310.508 170.652,309.553 170.375,308.505 170.231 C 307.457 170.087,306.150 169.904,305.600 169.824 C 305.050 169.744,303.790 169.844,302.800 170.046 M162.409 315.076 C 162.414 315.254,163.809 316.333,165.509 317.473 C 167.209 318.614,170.850 321.103,173.600 323.004 C 179.475 327.066,180.000 327.378,180.000 326.814 C 180.000 326.586,179.730 326.400,179.400 326.400 C 179.070 326.400,178.800 326.220,178.800 326.000 C 178.800 325.780,178.530 325.600,178.200 325.600 C 177.870 325.600,177.600 325.442,177.600 325.249 C 177.600 325.055,177.060 324.673,176.400 324.400 C 175.740 324.127,175.200 323.774,175.200 323.616 C 175.200 323.458,174.764 323.130,174.231 322.887 C 173.698 322.644,172.933 322.173,172.531 321.840 C 171.880 321.302,163.739 315.581,162.780 314.988 C 162.571 314.858,162.404 314.898,162.409 315.076 " stroke="none" fill="#76d75f" fill-rule="evenodd"></path><path id="path4" d="M113.071 61.462 C 112.907 61.626,111.744 61.912,110.486 62.096 C 109.229 62.280,107.524 62.533,106.697 62.658 C 105.871 62.783,105.095 63.045,104.974 63.242 C 104.852 63.439,104.390 63.600,103.947 63.600 C 102.686 63.600,95.950 65.944,93.505 67.234 C 93.123 67.435,92.538 67.600,92.205 67.600 C 91.872 67.600,91.600 67.736,91.600 67.902 C 91.600 68.069,91.015 68.459,90.300 68.769 C 88.447 69.573,82.154 73.426,81.120 74.389 C 80.641 74.835,80.091 75.200,79.899 75.200 C 79.706 75.200,78.671 76.100,77.600 77.200 C 76.529 78.300,75.460 79.200,75.226 79.200 C 74.992 79.200,74.800 79.380,74.800 79.600 C 74.800 79.864,90.933 80.000,122.400 80.000 C 165.067 80.000,170.000 79.936,170.000 79.382 C 170.000 78.755,168.286 76.800,167.737 76.800 C 167.573 76.800,166.890 76.279,166.219 75.642 C 163.270 72.842,156.474 68.762,150.000 65.906 C 149.010 65.470,147.887 64.952,147.505 64.756 C 147.123 64.560,146.459 64.400,146.029 64.400 C 145.599 64.400,145.136 64.220,145.000 64.000 C 144.864 63.780,144.234 63.600,143.600 63.600 C 142.966 63.600,142.348 63.439,142.226 63.242 C 142.105 63.045,141.329 62.783,140.503 62.658 C 139.676 62.533,137.920 62.223,136.600 61.968 C 133.875 61.443,113.528 61.005,113.071 61.462 M266.305 61.428 C 266.166 61.567,264.916 61.851,263.526 62.059 C 262.137 62.267,260.325 62.538,259.500 62.661 C 258.675 62.784,258.000 63.045,258.000 63.242 C 258.000 63.439,257.458 63.600,256.795 63.600 C 255.636 63.600,255.284 63.715,253.305 64.738 C 252.813 64.992,252.155 65.200,251.843 65.200 C 251.531 65.200,250.584 65.539,249.738 65.954 C 248.892 66.369,246.940 67.312,245.400 68.048 C 242.064 69.645,236.394 73.387,234.299 75.375 C 233.474 76.159,232.654 76.800,232.477 76.800 C 232.090 76.800,229.200 79.405,229.200 79.754 C 229.200 79.889,250.710 80.000,277.000 80.000 C 303.290 80.000,324.800 79.906,324.800 79.791 C 324.800 79.443,320.442 75.200,320.084 75.200 C 319.901 75.200,319.365 74.841,318.894 74.402 C 317.652 73.244,309.641 68.400,308.969 68.400 C 308.656 68.400,308.400 68.220,308.400 68.000 C 308.400 67.780,308.128 67.600,307.795 67.600 C 307.462 67.600,306.877 67.435,306.495 67.233 C 305.155 66.525,302.183 65.339,300.400 64.803 C 299.410 64.505,298.429 64.112,298.220 63.930 C 298.011 63.749,297.372 63.600,296.800 63.600 C 296.228 63.600,295.589 63.438,295.380 63.241 C 295.171 63.044,294.280 62.781,293.400 62.657 C 292.520 62.533,290.720 62.220,289.400 61.962 C 286.852 61.464,266.735 60.999,266.305 61.428 M93.400 89.296 C 91.251 90.032,90.629 90.285,88.600 91.249 C 87.500 91.772,86.540 92.335,86.467 92.500 C 86.393 92.665,86.155 92.800,85.938 92.800 C 85.721 92.800,85.314 93.025,85.035 93.300 C 84.755 93.575,83.961 94.230,83.269 94.755 C 71.849 103.431,71.411 128.384,82.588 133.538 C 97.988 140.639,130.678 117.500,124.716 103.719 C 123.202 100.221,117.497 93.600,115.995 93.600 C 115.778 93.600,115.600 93.441,115.600 93.247 C 115.600 93.052,115.285 92.793,114.900 92.671 C 114.515 92.549,113.750 92.189,113.200 91.872 C 112.650 91.554,111.660 91.072,111.000 90.800 C 110.340 90.529,109.487 90.148,109.105 89.953 C 108.723 89.759,107.969 89.600,107.429 89.600 C 106.889 89.600,106.336 89.420,106.200 89.200 C 105.874 88.672,94.982 88.754,93.400 89.296 M242.454 262.700 C 242.424 263.209,242.139 263.600,241.800 263.600 C 241.470 263.600,241.200 263.780,241.200 264.000 C 241.200 264.724,239.909 264.417,239.093 263.500 C 238.550 262.890,238.235 262.761,238.113 263.100 C 238.011 263.384,237.258 263.600,236.367 263.600 C 235.505 263.600,234.800 263.780,234.800 264.000 C 234.800 264.961,227.270 264.473,227.082 263.500 L 226.909 262.600 226.854 263.500 C 226.824 264.009,226.539 264.400,226.200 264.400 C 225.848 264.400,225.595 264.028,225.588 263.500 C 225.577 262.678,225.539 262.663,225.155 263.322 C 223.246 266.605,207.993 279.314,204.000 280.949 C 203.010 281.354,201.725 281.935,201.145 282.239 C 200.236 282.715,200.023 282.710,199.596 282.196 C 198.962 281.431,198.400 281.433,198.400 282.200 C 198.400 282.530,198.220 282.800,198.000 282.800 C 197.780 282.800,197.600 282.530,197.600 282.200 C 197.600 281.424,197.238 281.441,196.331 282.262 C 195.650 282.879,195.546 282.875,194.800 282.200 C 194.081 281.549,194.000 281.543,194.000 282.138 C 194.000 283.006,192.897 282.998,192.729 282.129 C 192.608 281.500,192.557 281.500,191.929 282.129 C 191.093 282.964,190.907 282.964,190.071 282.129 C 189.443 281.500,189.392 281.500,189.271 282.129 C 189.109 282.967,188.453 283.002,188.141 282.190 C 187.949 281.691,187.796 281.672,187.297 282.085 C 186.457 282.783,184.516 282.822,183.961 282.153 C 183.358 281.426,182.800 281.449,182.800 282.200 C 182.800 282.530,182.620 282.800,182.400 282.800 C 182.180 282.800,182.000 282.549,182.000 282.242 C 182.000 281.544,180.088 281.594,179.817 282.300 C 179.541 283.019,178.881 282.915,178.729 282.129 C 178.608 281.500,178.557 281.500,177.929 282.129 C 177.093 282.964,176.907 282.964,176.071 282.129 C 175.443 281.500,175.392 281.500,175.271 282.129 C 175.103 282.998,174.000 283.006,174.000 282.138 C 174.000 281.543,173.919 281.549,173.200 282.200 C 172.454 282.875,172.350 282.879,171.669 282.262 C 170.762 281.441,170.400 281.424,170.400 282.200 C 170.400 282.530,170.220 282.800,170.000 282.800 C 169.780 282.800,169.600 282.560,169.600 282.267 C 169.600 281.941,169.133 281.733,168.400 281.733 C 167.667 281.733,167.200 281.941,167.200 282.267 C 167.200 282.560,167.020 282.800,166.800 282.800 C 166.580 282.800,166.400 282.530,166.400 282.200 C 166.400 281.424,166.038 281.441,165.131 282.262 C 164.450 282.878,164.348 282.877,163.649 282.245 C 162.985 281.644,162.872 281.636,162.662 282.183 C 162.348 283.001,161.691 282.970,161.529 282.129 C 161.408 281.500,161.357 281.500,160.729 282.129 C 160.359 282.498,159.941 282.800,159.800 282.800 C 159.659 282.800,159.241 282.498,158.871 282.129 C 158.243 281.500,158.192 281.500,158.071 282.129 C 157.922 282.901,156.800 283.052,156.800 282.300 C 156.800 282.025,156.350 281.774,155.800 281.742 C 155.184 281.707,154.800 281.899,154.800 282.242 C 154.800 282.549,154.620 282.800,154.400 282.800 C 154.180 282.800,154.000 282.530,154.000 282.200 C 154.000 281.424,153.638 281.441,152.731 282.262 C 152.051 282.878,151.949 282.878,151.269 282.262 C 150.362 281.441,150.000 281.424,150.000 282.200 C 150.000 282.530,149.820 282.800,149.600 282.800 C 149.380 282.800,149.200 282.530,149.200 282.200 C 149.200 281.424,148.838 281.441,147.931 282.262 C 147.250 282.879,147.146 282.875,146.400 282.200 C 145.681 281.549,145.600 281.543,145.600 282.138 C 145.600 282.502,145.330 282.800,145.000 282.800 C 144.670 282.800,144.400 282.575,144.400 282.300 C 144.400 282.025,143.950 281.800,143.400 281.800 C 142.850 281.800,142.400 282.025,142.400 282.300 C 142.400 282.575,142.130 282.800,141.800 282.800 C 141.470 282.800,141.200 282.502,141.200 282.138 C 141.200 281.543,141.119 281.549,140.400 282.200 C 139.654 282.875,139.550 282.879,138.869 282.262 C 137.962 281.441,137.600 281.424,137.600 282.200 C 137.600 282.530,137.420 282.800,137.200 282.800 C 136.980 282.800,136.800 282.530,136.800 282.200 C 136.800 281.449,136.242 281.426,135.639 282.153 C 135.087 282.818,133.021 282.781,132.334 282.094 C 131.668 281.428,131.200 281.472,131.200 282.200 C 131.200 282.530,131.020 282.800,130.800 282.800 C 130.580 282.800,130.400 282.530,130.400 282.200 C 130.400 281.870,130.136 281.600,129.813 281.600 C 129.478 281.600,129.316 281.837,129.436 282.150 C 129.778 283.041,127.515 282.825,126.704 281.889 L 126.000 281.078 126.000 281.939 C 126.000 282.936,124.923 283.120,124.729 282.156 C 124.616 281.592,124.515 281.606,123.918 282.268 C 123.267 282.989,125.936 286.791,127.101 286.803 C 127.266 286.805,128.506 287.840,129.859 289.103 C 131.211 290.366,133.011 291.967,133.859 292.660 C 134.706 293.354,135.790 294.254,136.266 294.660 C 138.453 296.527,147.428 303.629,150.600 306.002 C 151.920 306.990,153.090 307.897,153.200 308.018 C 153.310 308.139,154.030 308.671,154.800 309.200 C 155.570 309.729,156.290 310.274,156.400 310.411 C 156.510 310.548,157.770 311.447,159.200 312.408 C 160.630 313.369,162.005 314.346,162.255 314.578 C 162.506 314.810,164.818 316.440,167.393 318.200 C 169.968 319.960,172.440 321.710,172.885 322.088 C 173.331 322.467,174.034 322.884,174.448 323.015 C 174.861 323.146,175.200 323.400,175.200 323.578 C 175.200 323.757,175.740 324.127,176.400 324.400 C 177.060 324.673,177.600 325.055,177.600 325.249 C 177.600 325.442,177.870 325.600,178.200 325.600 C 178.530 325.600,178.800 325.780,178.800 326.000 C 178.800 326.220,179.070 326.400,179.400 326.400 C 179.730 326.400,180.000 326.580,180.000 326.800 C 180.000 327.020,180.171 327.200,180.380 327.200 C 180.589 327.200,182.794 328.524,185.280 330.142 C 192.571 334.889,199.248 338.800,200.059 338.800 C 200.760 338.800,209.253 333.849,214.365 330.460 C 215.594 329.645,217.095 328.728,217.700 328.422 C 218.305 328.115,218.800 327.715,218.800 327.532 C 218.800 327.350,218.994 327.200,219.232 327.200 C 219.600 327.200,226.622 322.622,227.200 322.005 C 227.310 321.887,228.840 320.817,230.600 319.626 C 233.703 317.526,242.777 311.089,243.997 310.122 C 244.329 309.860,245.770 308.785,247.200 307.735 C 248.630 306.684,249.890 305.729,250.000 305.611 C 250.110 305.494,251.279 304.588,252.599 303.599 C 254.803 301.945,258.233 299.267,260.206 297.657 C 263.606 294.885,265.522 293.285,266.263 292.600 C 268.464 290.567,272.192 287.344,272.956 286.814 C 273.420 286.492,274.687 285.322,275.772 284.214 L 277.743 282.200 264.627 282.094 C 253.076 282.002,251.570 281.918,252.005 281.394 C 252.276 281.068,252.648 280.800,252.831 280.800 C 253.014 280.800,253.599 280.395,254.131 279.900 C 254.663 279.405,255.706 278.587,256.449 278.083 C 257.800 277.166,261.157 274.742,263.378 273.081 C 264.026 272.597,265.130 271.705,265.831 271.100 C 266.532 270.495,267.228 270.000,267.378 270.000 C 267.658 270.000,268.714 269.076,271.837 266.100 C 272.818 265.165,273.886 264.400,274.211 264.400 C 274.535 264.400,274.800 264.220,274.800 264.000 C 274.800 263.780,274.260 263.600,273.600 263.600 C 272.940 263.600,272.400 263.780,272.400 264.000 C 272.400 264.724,271.109 264.417,270.293 263.500 C 269.750 262.890,269.435 262.761,269.313 263.100 C 269.211 263.384,268.458 263.600,267.567 263.600 C 266.705 263.600,266.000 263.780,266.000 264.000 C 266.000 264.724,264.709 264.417,263.893 263.500 C 263.350 262.890,263.035 262.761,262.913 263.100 C 262.814 263.375,262.133 263.600,261.400 263.600 C 260.667 263.600,259.976 263.375,259.865 263.100 C 259.754 262.825,259.649 263.005,259.632 263.500 C 259.614 263.995,259.396 264.400,259.147 264.400 C 258.898 264.400,258.333 263.995,257.893 263.500 C 257.350 262.890,257.035 262.761,256.913 263.100 C 256.811 263.384,256.058 263.600,255.167 263.600 C 254.305 263.600,253.600 263.780,253.600 264.000 C 253.600 264.724,252.309 264.417,251.493 263.500 C 250.950 262.890,250.635 262.761,250.513 263.100 C 250.411 263.384,249.658 263.600,248.767 263.600 C 247.905 263.600,247.200 263.780,247.200 264.000 C 247.200 264.724,245.909 264.417,245.093 263.500 C 244.550 262.890,244.235 262.761,244.113 263.100 C 243.816 263.928,242.868 263.663,242.682 262.700 L 242.509 261.800 242.454 262.700 " stroke="none" fill="#beff7f" fill-rule="evenodd"></path></g></svg>